<svg width="34" height="30" viewBox="0 0 34 30" fill="none" xmlns="http://www.w3.org/2000/svg">
<g clip-path="url(#clip0_38_29746)">
<path fill-rule="evenodd" clip-rule="evenodd" d="M4.05366 5.39509C4.01328 5.58566 1.70598 7.84146 0.607517 10.7675C-2.08963 17.9553 4.68366 21.545 11.2814 17.6367C12.724 16.7824 12.7584 16.6273 13.9226 15.7986C14.3711 15.4599 14.6716 15.1403 15.0679 14.7782C15.4093 14.4657 15.8669 13.9783 16.211 13.7486L16.1033 15.0156C16.4894 15.2241 16.295 14.7069 16.3316 16.1481C16.3365 16.3392 16.3785 16.4144 16.3866 16.5499C16.4113 16.9529 16.2358 16.7084 16.4269 17.7582C16.5266 18.3048 16.6822 18.1491 16.6956 18.7426C16.8749 18.6658 17.2933 18.6789 17.3574 17.8061L17.6902 18.0701C17.7542 18.1518 18.0149 18.1197 17.7989 18.4758C17.9896 18.0805 17.6606 18.8199 17.8587 18.2896C17.9406 18.0701 17.8533 18.1981 17.9529 18.0734L17.5846 13.7464C17.8641 13.9065 18.703 14.7178 18.8974 14.9105C21.58 17.5589 26.7568 20.5857 30.6504 19.0333C32.8058 18.1741 34.4562 15.9946 33.8854 12.7859C33.4073 10.0973 31.9556 8.0195 30.666 6.4013C29.3785 4.78527 27.1062 3.07178 25.3126 2.08571C23.2196 0.934674 20.5914 0.176751 17.8463 0.0253847C13.3066 -0.224534 8.66288 1.35665 5.35943 4.24732L4.05312 5.39509H4.05366ZM3.72359 16.5015C0.756132 14.9323 2.62351 10.8486 4.17697 8.66962C4.73212 7.89046 5.38797 7.10477 5.9652 6.55539C14.1886 -1.27103 27.3507 2.13145 31.1291 11.2897C31.478 12.1353 31.8991 13.3996 31.8048 14.4651C31.709 15.5465 30.9837 16.5554 30.1722 16.8124C30.5491 13.326 29.1761 10.7648 27.2457 8.34184C26.2156 7.04869 24.1269 5.64827 22.5062 4.92683C19.0794 3.40228 15.1659 3.38213 11.6906 4.76349C9.91965 5.46751 8.85727 6.30275 7.67696 7.30514C6.72066 8.11697 5.53604 9.58 4.83228 11.0289C3.89589 12.9563 3.69343 14.0687 3.72359 16.5009V16.5015ZM7.52673 16.8636C7.00012 16.9578 6.47889 17.1521 5.93289 17.0498C5.01374 13.9359 7.65542 10.1495 8.93104 9.01863C15.4749 3.2177 24.6988 6.24612 27.3076 12.4734C27.7594 13.552 28.426 15.9837 27.8999 17.2142C27.3798 17.2311 26.8208 17.0645 26.3335 16.949C26.3098 15.2116 26.3831 14.6225 25.6728 13.0516C25.1678 11.9349 24.4382 10.9831 23.7295 10.2944C18.7962 5.50018 10.9993 7.16684 8.26927 12.8104C7.48312 14.4363 7.63065 14.99 7.52673 16.8636ZM9.63911 15.9951C9.86203 12.3367 13.1337 9.59742 16.9611 9.6192C20.6856 9.64043 24.0117 12.5142 24.1969 16.0899C23.82 15.9646 22.6047 15.2301 22.3382 15.002C22.0296 14.7379 21.9672 14.1466 21.1336 13.1834C18.801 10.4882 14.1719 10.6385 12.0886 13.9037C11.8802 14.231 11.7574 14.6437 11.542 14.8669C11.276 15.1419 10.0736 15.9238 9.63965 15.9946L9.63911 15.9951Z" fill="#3A3326" fill-opacity="0.7"/>
<path fill-rule="evenodd" clip-rule="evenodd" d="M17.9532 18.0742C17.8536 18.1989 17.9408 18.0709 17.859 18.2903C17.6608 18.8207 17.9898 18.0813 17.7992 18.4766C18.0157 18.1205 17.7545 18.1526 17.6904 18.0709L17.3577 17.8068C17.2936 18.6796 16.8752 18.6666 16.6959 18.7434C16.683 18.1499 16.5268 18.3056 16.4272 17.7589C16.2361 16.7092 16.4116 16.9531 16.3868 16.5507C16.3782 16.4157 16.3367 16.34 16.3319 16.1489C16.2953 14.7076 16.4897 15.2249 16.1036 15.0164C15.8952 17.5831 15.6895 20.0474 15.4612 22.5743C15.3487 23.8218 15.2205 25.0975 15.1187 26.3411C14.9917 27.8907 14.7456 28.7488 15.7697 29.5824C16.8041 30.4247 18.007 29.8579 18.5374 29.0777C19.1211 28.219 18.7453 26.4652 18.644 25.4351C18.4066 23.0099 18.2187 20.5069 17.9537 18.0736" fill="#3A3326" fill-opacity="0.7"/>
</g>
<defs>
<clipPath id="clip0_38_29746">
<rect width="34" height="30" fill="white"/>
</clipPath>
</defs>
</svg>
